<svg xmlns="http://www.w3.org/2000/svg" viewBox="0 0 128 128" role="img" aria-label="Qingchuang New Tab icon">
  <defs>
    <linearGradient id="sky" x1="18" y1="10" x2="116" y2="118" gradientUnits="userSpaceOnUse">
      <stop offset="0" stop-color="#38bdf8"/>
      <stop offset="0.42" stop-color="#6366f1"/>
      <stop offset="1" stop-color="#f43f5e"/>
    </linearGradient>
    <linearGradient id="sun" x1="31" y1="25" x2="98" y2="95" gradientUnits="userSpaceOnUse">
      <stop offset="0" stop-color="#fde047"/>
      <stop offset="0.56" stop-color="#fb923c"/>
      <stop offset="1" stop-color="#f472b6"/>
    </linearGradient>
    <linearGradient id="leaf" x1="28" y1="94" x2="101" y2="56" gradientUnits="userSpaceOnUse">
      <stop offset="0" stop-color="#22c55e"/>
      <stop offset="1" stop-color="#2dd4bf"/>
    </linearGradient>
    <filter id="shadow" x="-25%" y="-25%" width="150%" height="150%">
      <feDropShadow dx="0" dy="8" stdDeviation="8" flood-color="#1e1b4b" flood-opacity="0.28"/>
    </filter>
  </defs>

  <rect width="128" height="128" rx="30" fill="url(#sky)"/>
  <path d="M21 91c20-9 32-28 48-28 13 0 21 10 38 7v29c0 7-6 13-13 13H34c-7 0-13-6-13-13v-8Z" fill="url(#leaf)" opacity="0.9"/>
  <circle cx="83" cy="43" r="25" fill="url(#sun)"/>
  <circle cx="83" cy="43" r="15" fill="#fff7ad" opacity="0.78"/>

  <g filter="url(#shadow)">
    <rect x="25" y="22" width="78" height="84" rx="20" fill="#ffffff" opacity="0.92"/>
    <rect x="35" y="32" width="25" height="27" rx="9" fill="#38bdf8"/>
    <rect x="68" y="32" width="25" height="27" rx="9" fill="#a78bfa"/>
    <rect x="35" y="67" width="25" height="29" rx="9" fill="#34d399"/>
    <rect x="68" y="67" width="25" height="29" rx="9" fill="#fb7185"/>
    <path d="M64 30v68M33 63h62" stroke="#ffffff" stroke-width="6" stroke-linecap="round" opacity="0.9"/>
  </g>
</svg>
